<?xml version="1.0" encoding="utf-8"?>
<svg id="master-artboard" viewBox="0 0 64 64" version="1.1" xmlns="http://www.w3.org/2000/svg" x="0px" y="0px" style="enable-background:new 0 0 336 235.2;" width="64px" height="64px"><rect id="ee-background" x="0" y="0" width="64" height="64" style="fill: white; fill-opacity: 0; pointer-events: none;"/><defs><style id="ee-google-fonts">@import url(https://fonts.googleapis.com/css?family=Ewert:400|Trocchi:400);</style></defs><path d="M 40.18547821044922 66.51000213623047 C 40.83881378173828 66.51000213623047 41.302146911621094 66.53333282470703 41.575477600097656 66.58000183105469 L 41.575477600097656 62.02000045776367 L 41.38547897338867 62.02000045776367 L 40.18547821044922 60.58000183105469 L 40.18547821044922 57.20000076293945 L 47.47547912597656 57.20000076293945 L 48.675479888916016 58.63999938964844 L 48.675479888916016 62.02000045776367 L 47.23548126220703 62.02000045776367 L 47.23548126220703 63.459999084472656 L 51.02547836303711 63.459999084472656 L 51.02547836303711 62.02000045776367 L 50.835479736328125 62.02000045776367 L 49.63547897338867 60.58000183105469 L 49.63547897338867 57.20000076293945 L 56.93547821044922 57.20000076293945 L 58.13547897338867 58.63999938964844 L 58.13547897338867 62.02000045776367 L 56.69548034667969 62.02000045776367 L 56.69548034667969 66.51000213623047 L 56.88547897338867 66.51000213623047 L 58.085479736328125 67.94999694824219 L 58.085479736328125 69.69999694824219 C 57.45881271362305 69.69999694824219 57.05548095703125 69.8133316040039 56.87548065185547 70.04000091552734 C 56.688812255859375 70.26667022705078 56.59547805786133 70.62666320800781 56.59547805786133 71.12000274658203 L 56.59547805786133 71.4800033569336 C 56.70881271362305 71.4800033569336 56.80548095703125 71.41666412353516 56.88547897338867 71.29000091552734 L 57.55548095703125 71.72000122070312 L 58.75547790527344 73.16000366210938 C 58.662147521972656 73.913330078125 58.39214324951172 74.4800033569336 57.94548034667969 74.86000061035156 C 57.49214553833008 75.24666595458984 56.9521484375 75.44000244140625 56.325477600097656 75.44000244140625 C 55.69214630126953 75.44000244140625 55.0721435546875 75.22333526611328 54.465476989746094 74.79000091552734 C 53.85214614868164 75.22333526611328 53.222145080566406 75.44000244140625 52.575477600097656 75.44000244140625 C 51.928810119628906 75.44000244140625 51.188812255859375 75.0566635131836 50.3554801940918 74.29000091552734 C 49.52214431762695 73.52333068847656 49.05881118774414 72.66666412353516 48.965476989746094 71.72000122070312 L 49.63547897338867 71.29000091552734 C 49.702144622802734 71.43000030517578 49.8554801940918 71.5 50.09547805786133 71.5 C 50.78214645385742 71.5 51.12548065185547 70.9000015258789 51.12548065185547 69.69999694824219 L 50.835479736328125 69.69999694824219 L 49.63547897338867 68.26000213623047 L 49.63547897338867 67.63999938964844 L 48.365478515625 67.63999938964844 L 48.62548065185547 67.94999694824219 L 48.62548065185547 69.69999694824219 C 48.00547790527344 69.69999694824219 47.60214614868164 69.8133316040039 47.41547775268555 70.04000091552734 C 47.23548126220703 70.26667022705078 47.145477294921875 70.62666320800781 47.145477294921875 71.12000274658203 L 47.145477294921875 71.4800033569336 C 47.25214385986328 71.4800033569336 47.34547805786133 71.41666412353516 47.425479888916016 71.29000091552734 L 48.1054801940918 71.72000122070312 L 49.30548095703125 73.16000366210938 C 49.20547866821289 73.913330078125 48.93214416503906 74.4800033569336 48.48548126220703 74.86000061035156 C 48.03881072998047 75.24666595458984 47.49881362915039 75.44000244140625 46.865478515625 75.44000244140625 C 46.232147216796875 75.44000244140625 45.612144470214844 75.22333526611328 45.00547790527344 74.79000091552734 C 44.39881134033203 75.22333526611328 43.77214431762695 75.44000244140625 43.12548065185547 75.44000244140625 C 42.472145080566406 75.44000244140625 41.732147216796875 75.0566635131836 40.905479431152344 74.29000091552734 C 40.072147369384766 73.52333068847656 39.6054801940918 72.66666412353516 39.50547790527344 71.72000122070312 L 40.18547821044922 71.29000091552734 C 40.245479583740234 71.43000030517578 40.395477294921875 71.5 40.63547897338867 71.5 C 41.322147369384766 71.5 41.66547775268555 70.9000015258789 41.66547775268555 69.69999694824219 L 41.38547897338867 69.69999694824219 L 40.18547821044922 68.26000213623047 L 40.18547821044922 66.51000213623047 M 42.91547775268555 67.30000305175781 C 43.075477600097656 67.2066650390625 43.26881408691406 67.01667022705078 43.495479583740234 66.7300033569336 L 44.115478515625 66.7300033569336 C 44.3221435546875 67.01667022705078 44.515480041503906 67.2066650390625 44.69548034667969 67.30000305175781 C 44.8554801940918 67.08000183105469 45.0621452331543 66.90666961669922 45.31547927856445 66.77999877929688 L 45.31547927856445 65.55000305175781 L 51.745479583740234 65.55000305175781 L 51.745479583740234 66.77999877929688 C 51.972145080566406 66.88666534423828 52.18214416503906 67.05999755859375 52.37548065185547 67.30000305175781 C 52.53547668457031 67.2066650390625 52.72547912597656 67.01667022705078 52.94548034667969 66.7300033569336 L 53.575477600097656 66.7300033569336 C 53.78214645385742 67.01667022705078 53.972145080566406 67.2066650390625 54.145477294921875 67.30000305175781 C 54.30548095703125 67.08000183105469 54.515480041503906 66.90666961669922 54.77547836303711 66.77999877929688 L 54.77547836303711 59.90999984741211 L 56.265480041503906 59.90999984741211 L 56.265480041503906 57.87000274658203 L 50.30548095703125 57.87000274658203 L 50.30548095703125 59.90999984741211 L 51.745479583740234 59.90999984741211 L 51.745479583740234 64.11000061035156 L 45.31547927856445 64.11000061035156 L 45.31547927856445 59.90999984741211 L 46.80548095703125 59.90999984741211 L 46.80548095703125 57.87000274658203 L 40.8554801940918 57.87000274658203 L 40.8554801940918 59.90999984741211 L 42.29547882080078 59.90999984741211 L 42.29547882080078 66.77999877929688 C 42.515480041503906 66.88666534423828 42.722145080566406 67.05999755859375 42.91547775268555 67.30000305175781 M 53.335479736328125 72.54000091552734 C 53.9088134765625 73.03333282470703 54.54547882080078 73.27999877929688 55.245479583740234 73.27999877929688 C 55.938812255859375 73.27999877929688 56.44548034667969 72.87999725341797 56.765480041503906 72.08000183105469 C 56.65214538574219 72.14666748046875 56.52547836303711 72.18000030517578 56.38547897338867 72.18000030517578 C 55.265480041503906 72.18000030517578 54.70547866821289 71.35333251953125 54.70547866821289 69.69999694824219 C 54.70547866821289 68.36000061035156 55.232147216796875 67.69000244140625 56.28547668457031 67.69000244140625 L 56.28547668457031 67.08999633789062 C 55.97881317138672 67.08999633789062 55.745479583740234 67.0999984741211 55.585479736328125 67.12000274658203 C 55.425479888916016 67.14666748046875 55.22547912597656 67.24666595458984 54.98548126220703 67.41999816894531 C 54.745479583740234 67.5999984741211 54.53214645385742 67.86666870117188 54.34547805786133 68.22000122070312 C 53.95881271362305 68.13999938964844 53.598812103271484 67.86000061035156 53.265480041503906 67.37999725341797 C 52.925479888916016 67.8066635131836 52.56547927856445 68.086669921875 52.18547821044922 68.22000122070312 C 51.972145080566406 67.86666870117188 51.745479583740234 67.5999984741211 51.50547790527344 67.41999816894531 C 51.265480041503906 67.24666595458984 51.06547927856445 67.14666748046875 50.905479431152344 67.12000274658203 C 50.745479583740234 67.0999984741211 50.52214431762695 67.08999633789062 50.23548126220703 67.08999633789062 L 50.23548126220703 67.69000244140625 C 51.29547882080078 67.69000244140625 51.825477600097656 68.36000061035156 51.825477600097656 69.69999694824219 C 51.825477600097656 70.91999816894531 51.56881332397461 71.68000030517578 51.05548095703125 71.9800033569336 C 50.81547927856445 72.11333465576172 50.51214599609375 72.18000030517578 50.145477294921875 72.18000030517578 L 49.75547790527344 72.08000183105469 C 50.075477600097656 72.87999725341797 50.585479736328125 73.27999877929688 51.28547668457031 73.27999877929688 C 51.97881317138672 73.27999877929688 52.612144470214844 73.03333282470703 53.18547821044922 72.54000091552734 L 53.335479736328125 72.54000091552734 M 43.87548065185547 72.54000091552734 C 44.45547866821289 73.03333282470703 45.09214401245117 73.27999877929688 45.78548049926758 73.27999877929688 C 46.47881317138672 73.27999877929688 46.98548126220703 72.87999725341797 47.30548095703125 72.08000183105469 C 47.198814392089844 72.14666748046875 47.0721435546875 72.18000030517578 46.925479888916016 72.18000030517578 C 45.80548095703125 72.18000030517578 45.245479583740234 71.35333251953125 45.245479583740234 69.69999694824219 C 45.245479583740234 68.36000061035156 45.77214431762695 67.69000244140625 46.825477600097656 67.69000244140625 L 46.825477600097656 67.08999633789062 C 46.52547836303711 67.08999633789062 46.29547882080078 67.0999984741211 46.13547897338867 67.12000274658203 C 45.97547912597656 67.14666748046875 45.77547836303711 67.24666595458984 45.53548049926758 67.41999816894531 C 45.29547882080078 67.5999984741211 45.07881164550781 67.86666870117188 44.88547897338867 68.22000122070312 C 44.49881362915039 68.13999938964844 44.13881301879883 67.86000061035156 43.80548095703125 67.37999725341797 C 43.472145080566406 67.8066635131836 43.112144470214844 68.086669921875 42.72547912597656 68.22000122070312 C 42.51881408691406 67.86666870117188 42.29547882080078 67.5999984741211 42.05548095703125 67.41999816894531 C 41.81547927856445 67.24666595458984 41.615478515625 67.14666748046875 41.45547866821289 67.12000274658203 C 41.29547882080078 67.0999984741211 41.072147369384766 67.08999633789062 40.78548049926758 67.08999633789062 L 40.78548049926758 67.69000244140625 C 41.83881378173828 67.69000244140625 42.365478515625 68.36000061035156 42.365478515625 69.69999694824219 C 42.365478515625 70.91999816894531 42.10881042480469 71.68000030517578 41.59547805786133 71.9800033569336 C 41.3554801940918 72.11333465576172 41.052146911621094 72.18000030517578 40.68547821044922 72.18000030517578 L 40.305477142333984 72.08000183105469 C 40.62548065185547 72.87999725341797 41.132144927978516 73.27999877929688 41.825477600097656 73.27999877929688 C 42.51881408691406 73.27999877929688 43.155479431152344 73.03333282470703 43.735477447509766 72.54000091552734 L 43.87548065185547 72.54000091552734 ZM 74.09226989746094 59.099998474121094 C 74.09226989746094 59.099998474121094 74.40226745605469 59.413333892822266 75.02227020263672 60.040000915527344 C 75.64893341064453 60.67333221435547 75.96226501464844 61.926666259765625 75.96226501464844 63.79999923706055 C 75.96226501464844 65.67333221435547 75.46893310546875 67.06999969482422 74.48226928710938 67.98999786376953 C 73.50226593017578 68.91000366210938 72.15560150146484 69.37000274658203 70.44226837158203 69.37000274658203 L 69.24226379394531 69.37000274658203 L 69.24226379394531 69.69999694824219 C 68.6156005859375 69.69999694824219 68.21226501464844 69.8133316040039 68.03226470947266 70.04000091552734 C 67.8456039428711 70.26667022705078 67.75226593017578 70.62666320800781 67.75226593017578 71.12000274658203 L 67.75226593017578 71.4800033569336 C 67.8656005859375 71.4800033569336 67.96226501464844 71.41666412353516 68.04226684570312 71.29000091552734 L 68.71226501464844 71.72000122070312 L 69.91226959228516 73.16000366210938 C 69.81893157958984 73.913330078125 69.54893493652344 74.4800033569336 69.10226440429688 74.86000061035156 C 68.64893341064453 75.24666595458984 68.10893249511719 75.44000244140625 67.48226928710938 75.44000244140625 C 66.84893798828125 75.44000244140625 66.22893524169922 75.22333526611328 65.62226867675781 74.79000091552734 C 65.0089340209961 75.22333526611328 64.37893676757812 75.44000244140625 63.732269287109375 75.44000244140625 C 63.085601806640625 75.44000244140625 62.34560012817383 75.0566635131836 61.51226806640625 74.29000091552734 C 60.678932189941406 73.52333068847656 60.215599060058594 72.66666412353516 60.12226867675781 71.72000122070312 L 60.792266845703125 71.29000091552734 C 60.85893249511719 71.43000030517578 61.01226806640625 71.5 61.25226593017578 71.5 C 61.938934326171875 71.5 62.28226852416992 70.9000015258789 62.28226852416992 69.69999694824219 L 61.99226760864258 69.69999694824219 L 60.792266845703125 68.26000213623047 L 60.792266845703125 66.51000213623047 C 61.452266693115234 66.51000213623047 61.91559982299805 66.53333282470703 62.18226623535156 66.58000183105469 L 62.18226623535156 62.02000045776367 L 61.51226806640625 62.02000045776367 L 60.3122673034668 60.58000183105469 L 60.3122673034668 57.20000076293945 L 68.93226623535156 57.20000076293945 C 71.12560272216797 57.20000076293945 72.8456039428711 57.833335876464844 74.09226989746094 59.099998474121094 M 63.53226852416992 67.30000305175781 C 63.69226837158203 67.2066650390625 63.882266998291016 67.01667022705078 64.10226440429688 66.7300033569336 L 64.73226928710938 66.7300033569336 C 64.93893432617188 67.01667022705078 65.12893676757812 67.2066650390625 65.3022689819336 67.30000305175781 C 65.57559967041016 66.93333435058594 65.90226745605469 66.70999908447266 66.28226470947266 66.62999725341797 C 66.65560150146484 66.55000305175781 67.24226379394531 66.51000213623047 68.04226684570312 66.51000213623047 L 68.66226959228516 67.26000213623047 L 69.02227020263672 67.26000213623047 C 72.36893463134766 67.26000213623047 74.04226684570312 65.62666320800781 74.04226684570312 62.36000061035156 C 74.04226684570312 61.366668701171875 73.76893615722656 60.439998626708984 73.2222671508789 59.58000183105469 C 72.88893127441406 59.06666564941406 72.34226989746094 58.65333557128906 71.58226776123047 58.34000015258789 C 70.822265625 58.02666473388672 69.88226318359375 57.87000274658203 68.76226806640625 57.87000274658203 L 60.982269287109375 57.87000274658203 L 60.982269287109375 59.90999984741211 L 62.90226745605469 59.90999984741211 L 62.90226745605469 66.77999877929688 C 63.12893295288086 66.88666534423828 63.33893585205078 67.05999755859375 63.53226852416992 67.30000305175781 M 65.98226928710938 59.90999984741211 L 67.49226379394531 59.90999984741211 C 69.7789306640625 59.90999984741211 70.92227172851562 60.79999923706055 70.92227172851562 62.58000183105469 C 70.92227172851562 63.52000045776367 70.64559936523438 64.2933349609375 70.09226989746094 64.9000015258789 C 69.53893280029297 65.51333618164062 68.6789321899414 65.81999969482422 67.51226806640625 65.81999969482422 L 65.98226928710938 65.81999969482422 L 65.98226928710938 59.90999984741211 M 64.49226379394531 72.54000091552734 C 65.06559753417969 73.03333282470703 65.7022705078125 73.27999877929688 66.40226745605469 73.27999877929688 C 67.0956039428711 73.27999877929688 67.60226440429688 72.87999725341797 67.92227172851562 72.08000183105469 C 67.8089370727539 72.14666748046875 67.68226623535156 72.18000030517578 67.54226684570312 72.18000030517578 C 66.4222640991211 72.18000030517578 65.86226654052734 71.35333251953125 65.86226654052734 69.69999694824219 C 65.86226654052734 68.36000061035156 66.38893127441406 67.69000244140625 67.44226837158203 67.69000244140625 L 67.44226837158203 67.08999633789062 C 67.1355972290039 67.08999633789062 66.90226745605469 67.0999984741211 66.74226379394531 67.12000274658203 C 66.58226776123047 67.14666748046875 66.38227081298828 67.24666595458984 66.14226531982422 67.41999816894531 C 65.90226745605469 67.5999984741211 65.68893432617188 67.86666870117188 65.50226593017578 68.22000122070312 C 65.1156005859375 68.13999938964844 64.75559997558594 67.86000061035156 64.4222640991211 67.37999725341797 C 64.08226776123047 67.8066635131836 63.722267150878906 68.086669921875 63.34226608276367 68.22000122070312 C 63.12893295288086 67.86666870117188 62.90226745605469 67.5999984741211 62.66226577758789 67.41999816894531 C 62.42226791381836 67.24666595458984 62.222267150878906 67.14666748046875 62.0622673034668 67.12000274658203 C 61.90226745605469 67.0999984741211 61.678932189941406 67.08999633789062 61.392269134521484 67.08999633789062 L 61.392269134521484 67.69000244140625 C 62.452266693115234 67.69000244140625 62.982269287109375 68.36000061035156 62.982269287109375 69.69999694824219 C 62.982269287109375 70.91999816894531 62.72560119628906 71.68000030517578 62.2122688293457 71.9800033569336 C 61.972267150878906 72.11333465576172 61.6689338684082 72.18000030517578 61.302268981933594 72.18000030517578 L 60.91226577758789 72.08000183105469 C 61.232269287109375 72.87999725341797 61.74226760864258 73.27999877929688 62.44226837158203 73.27999877929688 C 63.13560104370117 73.27999877929688 63.76893615722656 73.03333282470703 64.34226989746094 72.54000091552734 L 64.49226379394531 72.54000091552734 M 68.62226867675781 62 L 67.85226440429688 62 L 67.85226440429688 65.12000274658203 C 69.4522705078125 64.99333190917969 70.25226593017578 64.14666748046875 70.25226593017578 62.58000183105469 L 70.2222671508789 62.220001220703125 C 69.92227172851562 62.073333740234375 69.38893127441406 62 68.62226867675781 62 Z" transform="matrix(1.8890131711959839, 0, 0, 1.8890131711959839, -71.75482940673828, -90.75227355957031)" style="fill: rgb(32, 133, 159); white-space: pre; color: rgb(51, 51, 51);"/></svg>